<svg width="42" height="42" viewBox="0 0 42 42" fill="none" xmlns="http://www.w3.org/2000/svg">
<path d="M42 21C42 32.592 32.6025 42 21 42C9.3975 42 0 32.592 0 21C0 9.3975 9.3975 0 21 0C32.6025 0 42 9.3975 42 21Z" fill="#283544"/>
<path d="M30.8432 15.6861C30.7286 15.7529 28.0006 17.1637 28.0006 20.2918C28.1292 23.8591 31.4432 25.1102 31.5 25.1102C31.4432 25.177 30.9997 26.8144 29.686 28.5308C28.6435 30.0093 27.4863 31.5 25.7292 31.5C24.0577 31.5 23.4577 30.5146 21.5292 30.5146C19.458 30.5146 18.872 31.5 17.2863 31.5C15.5292 31.5 14.2863 29.9295 13.1869 28.4648C11.7586 26.5479 10.5447 23.5396 10.5018 20.6512C10.4729 19.1206 10.7878 17.616 11.5872 16.3381C12.7155 14.554 14.7298 13.3429 16.9295 13.3029C18.6149 13.25 20.1149 14.3812 21.1435 14.3812C22.1292 14.3812 23.972 13.3029 26.0571 13.3029C26.9571 13.3038 29.3571 13.5564 30.8432 15.6861ZM21.0009 12.9973C20.7009 11.5996 21.5292 10.2018 22.3006 9.31016C23.2863 8.23188 24.8432 7.5 26.1857 7.5C26.2714 8.89777 25.7282 10.2686 24.7574 11.267C23.8863 12.3453 22.3863 13.1571 21.0009 12.9973Z" fill="white"/>
</svg>
