<svg width="42" height="42" viewBox="0 0 42 42" fill="none" xmlns="http://www.w3.org/2000/svg">
<path d="M0 14.4C0 9.35953 0 6.83929 0.980941 4.91409C1.8438 3.22063 3.22063 1.8438 4.91409 0.980941C6.83929 0 9.35953 0 14.4 0H27.6C32.6405 0 35.1607 0 37.0859 0.980941C38.7794 1.8438 40.1562 3.22063 41.0191 4.91409C42 6.83929 42 9.35953 42 14.4V27.6C42 32.6405 42 35.1607 41.0191 37.0859C40.1562 38.7794 38.7794 40.1562 37.0859 41.0191C35.1607 42 32.6405 42 27.6 42H14.4C9.35953 42 6.83929 42 4.91409 41.0191C3.22063 40.1562 1.8438 38.7794 0.980941 37.0859C0 35.1607 0 32.6405 0 27.6V14.4Z" fill="url(#paint0_linear_2001_4800)"/>
<path d="M33.4128 12.04C31.1422 10.12 28.4174 9.16 25.5413 9L25.0872 9.48C27.6606 10.12 29.9312 11.4 32.0505 13.16C29.4771 11.72 26.6009 10.76 23.5734 10.44C22.6651 10.28 21.9083 10.28 21 10.28C20.0917 10.28 19.3349 10.28 18.4266 10.44C15.3991 10.76 12.5229 11.72 9.94954 13.16C12.0688 11.4 14.3394 10.12 16.9128 9.48L16.4587 9C13.5826 9.16 10.8578 10.12 8.58716 12.04C6.01376 17.16 4.65138 22.92 4.5 28.84C6.77064 31.4 9.94954 33 13.2798 33C13.2798 33 14.3394 31.72 15.0963 30.6C13.1284 30.12 11.3119 29 10.1009 27.24C11.1606 27.88 12.2202 28.52 13.2798 29C14.6422 29.64 16.0046 29.96 17.367 30.28C18.578 30.44 19.789 30.6 21 30.6C22.211 30.6 23.422 30.44 24.633 30.28C25.9954 29.96 27.3578 29.64 28.7202 29C29.7798 28.52 30.8395 27.88 31.8991 27.24C30.6881 29 28.8716 30.12 26.9037 30.6C27.6606 31.72 28.7202 33 28.7202 33C32.0505 33 35.2294 31.4 37.5 28.84C37.3486 22.92 35.9862 17.16 33.4128 12.04ZM16.0046 25.96C14.4908 25.96 13.1284 24.52 13.1284 22.76C13.1284 21 14.4908 19.56 16.0046 19.56C17.5183 19.56 18.8807 21 18.8807 22.76C18.8807 24.52 17.5183 25.96 16.0046 25.96ZM25.9954 25.96C24.4817 25.96 23.1193 24.52 23.1193 22.76C23.1193 21 24.4817 19.56 25.9954 19.56C27.5092 19.56 28.8716 21 28.8716 22.76C28.8716 24.52 27.5092 25.96 25.9954 25.96Z" fill="white"/>
<defs>
<linearGradient id="paint0_linear_2001_4800" x1="21" y1="0" x2="21" y2="42" gradientUnits="userSpaceOnUse">
<stop stop-color="#687EC9"/>
<stop offset="1" stop-color="#5971C3"/>
</linearGradient>
</defs>
</svg>
