<svg width="34" height="40" viewBox="0 0 34 40" fill="none" xmlns="http://www.w3.org/2000/svg">
<g clip-path="url(#clip0_2012_4857)">
<path d="M30.2727 10.4259C30.7402 7.37776 30.2727 5.34569 28.6365 3.46994C26.8444 1.35972 23.5719 0.5 19.3644 0.5H7.28726C6.43018 0.5 5.72892 1.12525 5.57309 1.98497L0.508496 34.0291C0.430579 34.6543 0.89808 35.2014 1.52141 35.2014H9.00143L8.45601 38.484C8.3781 39.0311 8.76768 39.5 9.39101 39.5H15.7023C16.4814 39.5 17.1048 38.9529 17.1827 38.2495L18.5073 29.9649C18.5852 29.2615 19.2865 28.7144 19.9877 28.7144H20.9227C27.0002 28.7144 31.8311 26.2134 33.2336 19.023C33.779 16.0531 33.5452 13.4739 31.9869 11.7545C31.5194 11.2074 30.974 10.8166 30.2727 10.4259" fill="#009CDE"/>
<path d="M30.2727 10.4259C30.7402 7.37775 30.2727 5.34569 28.6365 3.46994C26.8444 1.35972 23.5719 0.5 19.3644 0.5H7.28726C6.43017 0.5 5.72892 1.12525 5.57309 1.98497L0.508496 34.0291C0.430579 34.6543 0.89808 35.2014 1.52141 35.2014H9.00143L10.7935 23.6343C10.9494 22.7745 11.6506 22.1493 12.5077 22.1493H16.0919C23.1044 22.1493 28.5586 19.3357 30.1169 11.0511C30.1948 10.8948 30.1948 10.6603 30.2727 10.4259Z" fill="#012169"/>
<path d="M12.8973 10.504C12.9752 9.95691 13.6764 9.25351 14.3777 9.25351H23.8835C24.9744 9.25351 26.0652 9.33166 27.0002 9.48798C27.8573 9.64429 29.4156 10.0351 30.1948 10.504C30.6623 7.45591 30.1948 5.42385 28.5585 3.5481C26.8444 1.35972 23.5719 0.5 19.3644 0.5H7.28726C6.43017 0.5 5.72892 1.12525 5.57309 1.98497L0.508496 34.0291C0.430579 34.6543 0.89808 35.2014 1.52141 35.2014H9.00143L12.8973 10.504V10.504Z" fill="#003087"/>
</g>
<defs>
<clipPath id="clip0_2012_4857">
<rect width="34" height="40" fill="white"/>
</clipPath>
</defs>
</svg>
