<svg width="42" height="42" viewBox="0 0 42 42" fill="none" xmlns="http://www.w3.org/2000/svg">
<path d="M21 0C9.41719 0 0 9.41719 0 21C0 32.5828 9.41719 42 21 42C32.5828 42 42 32.5828 42 21C42 9.41719 32.5828 0 21 0Z" fill="#FC471E"/>
<path fill-rule="evenodd" clip-rule="evenodd" d="M27.0289 10.3643C27.0099 10.4848 27 10.6084 27 10.7344C27 12.0065 28.0074 13.0377 29.25 13.0377C30.4926 13.0377 31.5 12.0065 31.5 10.7344C31.5 9.46229 30.4926 8.43105 29.25 8.43105C28.6963 8.43105 28.1893 8.6358 27.7973 8.97538L21.9543 7.5L19.8425 16.1476C17.0331 16.3369 14.5065 17.2078 12.6005 18.5228C12.0593 17.9794 11.3179 17.6444 10.5 17.6444C8.84315 17.6444 7.5 19.0194 7.5 20.7155C7.5 21.8959 8.15049 22.9207 9.10451 23.4349C9.03558 23.8012 9 24.1749 9 24.5544C9 29.2188 14.3726 33 21 33C27.6274 33 33 29.2188 33 24.5544C33 24.1749 32.9644 23.8012 32.8955 23.4349C33.8495 22.9207 34.5 21.8959 34.5 20.7155C34.5 19.0194 33.1569 17.6444 31.5 17.6444C30.6821 17.6444 29.9407 17.9794 29.3995 18.5228C27.323 17.0902 24.5099 16.1846 21.397 16.1134L23.0457 9.36214L27.0289 10.3643ZM15.75 25.3222C16.9926 25.3222 18 24.291 18 23.0189C18 21.7468 16.9926 20.7155 15.75 20.7155C14.5074 20.7155 13.5 21.7468 13.5 23.0189C13.5 24.291 14.5074 25.3222 15.75 25.3222ZM26.25 25.3222C27.4926 25.3222 28.5 24.291 28.5 23.0189C28.5 21.7468 27.4926 20.7155 26.25 20.7155C25.0074 20.7155 24 21.7468 24 23.0189C24 24.291 25.0074 25.3222 26.25 25.3222ZM16.166 27.7545C15.8214 27.5193 15.3557 27.6146 15.126 27.9674C14.8962 28.3202 14.9893 28.7969 15.334 29.0321C16.9661 30.146 18.9831 30.703 21 30.703C23.0169 30.703 25.0339 30.146 26.666 29.0321C27.0107 28.7969 27.1038 28.3202 26.874 27.9674C26.6443 27.6146 26.1786 27.5193 25.834 27.7545C24.4538 28.6964 22.7269 29.1674 21 29.1674C19.9759 29.1674 18.9518 29.0018 18 28.6705C17.3468 28.4432 16.7277 28.1378 16.166 27.7545Z" fill="white"/>
</svg>
