<svg width="42" height="42" viewBox="0 0 42 42" fill="none" xmlns="http://www.w3.org/2000/svg">
<circle cx="21" cy="21" r="21" fill="#FFFA37"/>
<path fill-rule="evenodd" clip-rule="evenodd" d="M28.5383 9.27826C27.0901 7.45319 24.7009 6 21.0176 6C17.8637 6.03106 11.5557 7.77668 11.5557 14.5107C11.5557 15.4941 11.6335 16.8112 11.7015 17.7812C11.6214 17.7579 11.5228 17.7143 11.3666 17.6394L11.3449 17.629C11.0687 17.4964 10.6488 17.2947 10.0647 17.2947C9.47468 17.2947 8.90417 17.5259 8.48063 17.8686C8.05964 18.2092 7.7 18.7327 7.7 19.3658C7.7 20.1576 8.14561 20.6833 8.66667 21.0203C9.12948 21.3196 9.71307 21.5108 10.175 21.6622L10.2207 21.6772C10.7152 21.8394 11.0776 21.963 11.3275 22.1188C11.522 22.24 11.5516 22.3167 11.5552 22.3896C11.5527 22.4 11.5467 22.4223 11.5338 22.4587C11.5071 22.5336 11.4628 22.6348 11.3979 22.7615C11.2686 23.0141 11.08 23.3247 10.8557 23.6559C10.4031 24.3242 9.85076 25.0095 9.43818 25.4064C9.03122 25.7979 8.36344 26.2844 7.66524 26.6716C7.319 26.8637 6.9804 27.0228 6.67751 27.1321C6.36483 27.2449 6.1357 27.2879 5.99412 27.2879C5.88204 27.2879 5.78504 27.3109 5.7427 27.3216C5.6832 27.3365 5.62161 27.3561 5.56069 27.379C5.43986 27.4244 5.29584 27.4925 5.1532 27.5885C4.88065 27.7719 4.5 28.1418 4.5 28.7252C4.5 29.0298 4.57149 29.2876 4.69507 29.5113C4.80325 29.7071 4.94231 29.8556 5.02235 29.9412L5.03422 29.9538L5.05637 29.9776C5.49653 30.4512 6.22512 30.7807 6.93243 31.0068C7.54018 31.201 8.21969 31.3458 8.88183 31.4327C8.89118 31.4753 8.90095 31.5213 8.91165 31.5717L8.91509 31.588C8.95679 31.7846 9.01201 32.045 9.09331 32.2851C9.17004 32.5116 9.30898 32.8466 9.59345 33.0851C9.95576 33.389 10.4296 33.4198 10.7388 33.4185C11.0707 33.4171 11.4582 33.3704 11.8259 33.3261L11.8572 33.3223C12.3746 33.26 12.9159 33.1956 13.4765 33.1956C14.4995 33.1956 15.1552 33.623 16.1841 34.3256L16.1911 34.3304C16.5474 34.5737 16.9465 34.8462 17.4 35.1142C18.9183 36.0114 20.1519 36.0037 20.8511 35.9993C20.8972 35.999 20.941 35.9987 20.9824 35.9987C21.0237 35.9987 21.0677 35.999 21.1142 35.9993C21.8145 36.0038 23.0809 36.0119 24.6 35.1142C25.0535 34.8462 25.4526 34.5737 25.8089 34.3304L25.8159 34.3256C26.8448 33.623 27.5005 33.1956 28.5235 33.1956C29.0841 33.1956 29.6254 33.26 30.1428 33.3223L30.1741 33.3261C30.5418 33.3704 30.9293 33.4171 31.2612 33.4185C31.5704 33.4198 32.0442 33.389 32.4065 33.0851C32.691 32.8466 32.83 32.5116 32.9067 32.2851C32.988 32.045 33.0432 31.7846 33.0849 31.588L33.0883 31.5717C33.099 31.5213 33.1088 31.4753 33.1182 31.4327C33.7803 31.3458 34.4598 31.201 35.0676 31.0068C35.7749 30.7807 36.5035 30.4511 36.9437 29.9775L36.9658 29.9538L36.9776 29.9412C37.0577 29.8557 37.1967 29.7071 37.3049 29.5113C37.4285 29.2876 37.5 29.0298 37.5 28.7252C37.5 28.1418 37.1193 27.7719 36.8468 27.5885C36.7042 27.4925 36.5601 27.4244 36.4393 27.379C36.3784 27.3561 36.3168 27.3365 36.2573 27.3216C36.215 27.3109 36.118 27.2879 36.0059 27.2879C35.8643 27.2879 35.6352 27.2449 35.3225 27.1321C35.0196 27.0228 34.681 26.8637 34.3348 26.6716C33.6366 26.2844 32.9688 25.7979 32.5618 25.4064C32.1492 25.0095 31.5969 24.3242 31.1443 23.6559C30.92 23.3247 30.7314 23.0141 30.6021 22.7615C30.5372 22.6348 30.4929 22.5336 30.4662 22.4587C30.4533 22.4223 30.4473 22.3999 30.4448 22.3896C30.4484 22.3167 30.478 22.24 30.6725 22.1188C30.9224 21.963 31.2848 21.8394 31.7793 21.6772L31.825 21.6622C32.2869 21.5108 32.8705 21.3196 33.3333 21.0203C33.8544 20.6833 34.3 20.1576 34.3 19.3658C34.3 18.7327 33.9404 18.2092 33.5194 17.8686C33.0958 17.5259 32.5253 17.2947 31.9353 17.2947C31.3512 17.2947 30.9313 17.4964 30.6551 17.629L30.6334 17.6394C30.4772 17.7143 30.3786 17.7579 30.2985 17.7812C30.3665 16.8112 30.4443 15.4941 30.4443 14.5107C30.4443 13.1755 29.959 11.0686 28.5383 9.27826ZM14.6748 10.1591C13.4732 11.6632 13.0616 13.4492 13.0616 14.5107C13.0616 15.4948 13.1449 16.862 13.2153 17.8423C13.2386 18.1679 13.1719 18.5474 12.8875 18.8487C12.5997 19.1537 12.2082 19.2526 11.8584 19.2526C11.3533 19.2526 10.9692 19.0679 10.7235 18.9497L10.6949 18.9359C10.4208 18.8045 10.2766 18.7434 10.0647 18.7434C9.87193 18.7434 9.63655 18.8262 9.44991 18.9772C9.26073 19.1303 9.20588 19.2801 9.20588 19.3658C9.20588 19.5404 9.27028 19.6651 9.50692 19.8181C9.7864 19.9989 10.1846 20.1348 10.7067 20.3061L10.7521 20.3209C11.1857 20.463 11.7227 20.6389 12.1464 20.9031C12.6221 21.1996 13.0616 21.6761 13.0616 22.4102C13.0616 22.6026 13.0084 22.7879 12.9584 22.9281C12.9042 23.0804 12.8309 23.2412 12.7489 23.4015C12.5844 23.7228 12.3619 24.0857 12.1174 24.4467C11.6322 25.163 11.0156 25.9377 10.503 26.4307C9.98482 26.9292 9.20555 27.4895 8.41738 27.9266C8.02044 28.1468 7.60603 28.3442 7.20642 28.4884C6.84871 28.6175 6.46319 28.7186 6.09336 28.7344C6.08414 28.7383 6.07396 28.7429 6.06329 28.7483C6.04624 28.7569 6.0303 28.7661 6.01639 28.7755L6.00926 28.7804C6.01066 28.7904 6.01226 28.7978 6.01359 28.803C6.01654 28.8146 6.02006 28.8228 6.02478 28.8314C6.03928 28.8576 6.06215 28.8869 6.15465 28.986L6.17893 29.012C6.34557 29.1913 6.75624 29.424 7.40723 29.632C8.02721 29.8302 8.76035 29.9733 9.45301 30.039C9.79957 30.0719 9.99932 30.2884 10.0839 30.4051C10.1709 30.5252 10.2207 30.652 10.2497 30.7362C10.306 30.8991 10.3485 31.0997 10.382 31.258L10.3871 31.2821C10.4329 31.4978 10.4729 31.6822 10.5251 31.8363C10.5436 31.8908 10.5606 31.9323 10.5753 31.9628C10.6083 31.9666 10.659 31.9702 10.7324 31.9699C11.0509 31.9686 11.3698 31.9212 11.6853 31.8831C12.1902 31.8222 12.815 31.747 13.4765 31.747C15.0106 31.747 16.023 32.4387 17.0009 33.1069L17.0558 33.1444C17.4177 33.3915 17.7804 33.6389 18.1882 33.8799C19.3376 34.5591 20.2121 34.5542 20.851 34.5506C20.8959 34.5504 20.9397 34.5501 20.9824 34.5501C21.0246 34.5501 21.0681 34.5503 21.1129 34.5506C21.7589 34.5541 22.6627 34.5589 23.8118 33.8799C24.2196 33.6389 24.5823 33.3915 24.9442 33.1444L24.9991 33.1069C25.977 32.4387 26.9894 31.747 28.5235 31.747C29.185 31.747 29.8098 31.8222 30.3147 31.8831L30.3299 31.8849C30.7382 31.9341 31.0369 31.9689 31.2676 31.9699C31.341 31.9702 31.3917 31.9666 31.4247 31.9628C31.4394 31.9323 31.4564 31.8908 31.4749 31.8363C31.5271 31.6822 31.5671 31.4978 31.6129 31.2821L31.618 31.258C31.6515 31.0997 31.694 30.8991 31.7503 30.7362C31.7793 30.652 31.8291 30.5252 31.9161 30.4051C32.0007 30.2884 32.2004 30.0719 32.547 30.039C33.2396 29.9733 33.9728 29.8302 34.5928 29.632C35.2438 29.424 35.6544 29.1913 35.8211 29.012L35.8453 28.986C35.9378 28.8869 35.9607 28.8576 35.9752 28.8314C35.9799 28.8228 35.9835 28.8146 35.9864 28.803C35.9877 28.7978 35.9893 28.7904 35.9907 28.7804L35.9836 28.7755C35.9697 28.7661 35.9538 28.7569 35.9367 28.7483C35.926 28.7429 35.9159 28.7383 35.9066 28.7344C35.5368 28.7186 35.1513 28.6175 34.7936 28.4884C34.394 28.3442 33.9796 28.1468 33.5826 27.9266C32.7944 27.4895 32.0152 26.9292 31.497 26.4307C30.9844 25.9377 30.3678 25.163 29.8826 24.4467C29.6381 24.0857 29.4156 23.7228 29.2511 23.4015C29.1691 23.2412 29.0958 23.0804 29.0416 22.9281C28.9917 22.7879 28.9384 22.6026 28.9384 22.4102C28.9384 21.6761 29.3779 21.1996 29.8536 20.9031C30.2773 20.6389 30.8143 20.463 31.2479 20.3209L31.2933 20.3061C31.8154 20.1348 32.2136 19.9989 32.4931 19.8181C32.7297 19.6651 32.7941 19.5404 32.7941 19.3658C32.7941 19.2801 32.7393 19.1303 32.5501 18.9772C32.3634 18.8262 32.1281 18.7434 31.9353 18.7434C31.7234 18.7434 31.5792 18.8045 31.3051 18.9359L31.2765 18.9497C31.0308 19.0679 30.6467 19.2526 30.1416 19.2526C29.7918 19.2526 29.4003 19.1537 29.1125 18.8487C28.8281 18.5474 28.7614 18.1679 28.7847 17.8423C28.8551 16.862 28.9384 15.4948 28.9384 14.5107C28.9384 13.4465 28.534 11.6603 27.3413 10.1572C26.1762 8.68896 24.2285 7.44862 21.0176 7.44862C17.8064 7.44862 15.849 8.68933 14.6748 10.1591Z" fill="black"/>
<path fill-rule="evenodd" clip-rule="evenodd" d="M14.6749 10.1587C13.4732 11.6629 13.0616 13.4489 13.0616 14.5103C13.0616 15.4944 13.1449 16.8616 13.2153 17.8419C13.2387 18.1675 13.1719 18.547 12.8876 18.8483C12.5997 19.1533 12.2082 19.2523 11.8584 19.2523C11.3534 19.2523 10.9692 19.0675 10.7235 18.9493L10.695 18.9356C10.4208 18.8041 10.2766 18.743 10.0647 18.743C9.87194 18.743 9.63657 18.8258 9.44993 18.9768C9.26074 19.1299 9.20589 19.2797 9.20589 19.3654C9.20589 19.54 9.27029 19.6647 9.50693 19.8178C9.78642 19.9985 10.1847 20.1344 10.7067 20.3057L10.7522 20.3206C11.1857 20.4626 11.7227 20.6385 12.1464 20.9027C12.6221 21.1992 13.0616 21.6757 13.0616 22.4098C13.0616 22.6023 13.0084 22.7875 12.9584 22.9277C12.9042 23.08 12.831 23.2408 12.7489 23.4011C12.5844 23.7224 12.3619 24.0853 12.1174 24.4463C11.6323 25.1627 11.0156 25.9373 10.503 26.4303C9.98483 26.9288 9.20556 27.4891 8.41739 27.9262C8.02045 28.1464 7.60604 28.3438 7.20643 28.488C6.84873 28.6171 6.46321 28.7182 6.09338 28.734C6.08416 28.7379 6.07397 28.7425 6.06331 28.7479C6.04626 28.7565 6.03031 28.7658 6.0164 28.7751L6.00928 28.7801C6.01067 28.79 6.01227 28.7974 6.0136 28.8026C6.01656 28.8142 6.02007 28.8224 6.0248 28.831C6.0393 28.8572 6.06216 28.8865 6.15467 28.9856L6.17894 29.0116C6.34558 29.1909 6.75626 29.4236 7.40724 29.6316C8.02723 29.8298 8.76036 29.9729 9.45302 30.0386C9.79958 30.0715 9.99933 30.288 10.0839 30.4047C10.1709 30.5248 10.2207 30.6516 10.2497 30.7358C10.306 30.8987 10.3485 31.0994 10.382 31.2576L10.3871 31.2817C10.4329 31.4974 10.4729 31.6818 10.5251 31.836C10.5436 31.8905 10.5606 31.9319 10.5753 31.9624C10.6083 31.9662 10.659 31.9698 10.7324 31.9695C11.0509 31.9682 11.3698 31.9208 11.6853 31.8827C12.1902 31.8219 12.815 31.7466 13.4765 31.7466C15.0107 31.7466 16.023 32.4383 17.0009 33.1065L17.0558 33.144C17.4177 33.3911 17.7804 33.6385 18.1882 33.8795C19.3376 34.5587 20.2121 34.5538 20.851 34.5502C20.8959 34.55 20.9397 34.5497 20.9824 34.5497C21.0246 34.5497 21.0682 34.55 21.1129 34.5502C21.7589 34.5537 22.6627 34.5586 23.8118 33.8795C24.2196 33.6385 24.5823 33.3911 24.9442 33.144L24.9991 33.1065C25.977 32.4383 26.9894 31.7466 28.5235 31.7466C29.185 31.7466 29.8098 31.8219 30.3147 31.8827L30.3299 31.8845C30.7382 31.9337 31.037 31.9686 31.2676 31.9695C31.341 31.9698 31.3917 31.9662 31.4248 31.9624C31.4394 31.9319 31.4564 31.8905 31.4749 31.836C31.5271 31.6818 31.5671 31.4974 31.6129 31.2817L31.618 31.2576C31.6515 31.0993 31.694 30.8987 31.7503 30.7358C31.7794 30.6516 31.8291 30.5248 31.9162 30.4047C32.0007 30.288 32.2004 30.0715 32.547 30.0386C33.2397 29.9729 33.9728 29.8298 34.5928 29.6316C35.2438 29.4236 35.6544 29.1909 35.8211 29.0117L35.8453 28.9856C35.9378 28.8865 35.9607 28.8572 35.9752 28.831C35.98 28.8224 35.9835 28.8142 35.9864 28.8026C35.9878 28.7974 35.9894 28.79 35.9907 28.78L35.9836 28.7751C35.9697 28.7658 35.9538 28.7565 35.9367 28.7479C35.926 28.7425 35.9159 28.7379 35.9067 28.734C35.5368 28.7182 35.1513 28.6171 34.7936 28.488C34.394 28.3438 33.9796 28.1464 33.5826 27.9262C32.7945 27.4891 32.0152 26.9288 31.497 26.4303C30.9845 25.9373 30.3678 25.1627 29.8826 24.4463C29.6381 24.0853 29.4156 23.7224 29.2511 23.4011C29.1691 23.2408 29.0958 23.08 29.0416 22.9277C28.9917 22.7875 28.9385 22.6023 28.9385 22.4098C28.9385 21.6757 29.3779 21.1992 29.8536 20.9027C30.2774 20.6385 30.8143 20.4626 31.2479 20.3206L31.2933 20.3057C31.8154 20.1344 32.2136 19.9985 32.4931 19.8178C32.7297 19.6647 32.7941 19.54 32.7941 19.3654C32.7941 19.2797 32.7393 19.1299 32.5501 18.9768C32.3635 18.8258 32.1281 18.743 31.9353 18.743C31.7234 18.743 31.5792 18.8041 31.3051 18.9356L31.2765 18.9493C31.0308 19.0675 30.6467 19.2523 30.1416 19.2523C29.7918 19.2523 29.4003 19.1533 29.1125 18.8483C28.8281 18.547 28.7614 18.1675 28.7847 17.8419C28.8551 16.8616 28.9385 15.4944 28.9385 14.5103C28.9385 13.4461 28.534 11.6599 27.3413 10.1569C26.1762 8.68858 24.2285 7.44824 21.0177 7.44824C17.8064 7.44824 15.849 8.68895 14.6749 10.1587Z" fill="white"/>
</svg>
