<svg width="36" height="40" viewBox="0 0 36 40" fill="none" xmlns="http://www.w3.org/2000/svg">
<g clip-path="url(#clip0_2012_4810)">
<path d="M6.67619 25.6887C6.91059 23.7479 7.7066 22.6612 9.20664 21.5473C11.3529 20.0386 14.034 20.892 14.034 20.892V15.8292C14.6857 15.8126 15.3378 15.8512 15.9825 15.9447V22.46C15.9825 22.46 13.3022 21.6065 11.156 23.116C9.65674 24.2292 8.8591 25.3166 8.62551 27.2575C8.61818 28.3114 8.81596 29.689 9.72673 30.8802C9.50155 30.7647 9.27203 30.6332 9.03816 30.4855C7.03187 29.1383 6.66642 27.1171 6.67619 25.6887ZM27.0525 6.46823C25.5761 4.85034 25.0177 3.21684 24.8159 2.06934H26.6732C26.6732 2.06934 26.3029 5.07812 29.0018 8.03698L29.0392 8.07676C28.3118 7.6192 27.6448 7.07912 27.0525 6.46823ZM35.9998 11.0551V17.4393C35.9998 17.4393 33.6297 17.3465 31.8757 16.9003C29.4267 16.2762 27.8526 15.3191 27.8526 15.3191C27.8526 15.3191 26.7652 14.6365 26.6773 14.5889V27.7723C26.6773 28.5064 26.4762 30.3396 25.8634 31.8685C25.0633 33.8687 23.8286 35.1816 23.6015 35.4499C23.6015 35.4499 22.0998 37.2246 19.4505 38.4197C17.0625 39.4978 14.9659 39.4705 14.3392 39.4978C14.3392 39.4978 10.7148 39.6413 7.45347 37.5218C6.74823 37.0547 6.08991 36.5256 5.48706 35.9414L5.50334 35.9531C8.7655 38.0726 12.389 37.929 12.389 37.929C13.0166 37.9017 15.1132 37.929 17.5004 36.8509C20.1473 35.6559 21.6514 33.8812 21.6514 33.8812C21.876 33.6128 23.1164 32.2999 23.9132 30.299C24.5245 28.7708 24.7271 26.9369 24.7271 26.2028V13.0209C24.815 13.0693 25.9016 13.7519 25.9016 13.7519C25.9016 13.7519 27.4765 14.7098 29.9256 15.3331C31.6804 15.7793 34.0497 15.8721 34.0497 15.8721V10.8695C34.8604 11.0512 35.5514 11.1004 35.9998 11.0551Z" fill="#EE1D52"/>
<path d="M34.0506 10.8695V15.8706C34.0506 15.8706 31.6813 15.7778 29.9265 15.3315C27.4774 14.7075 25.9025 13.7503 25.9025 13.7503C25.9025 13.7503 24.8159 13.0677 24.728 13.0194V26.2044C24.728 26.9384 24.527 28.7724 23.9141 30.3006C23.114 32.3015 21.8793 33.6144 21.6522 33.8827C21.6522 33.8827 20.1497 35.6574 17.5013 36.8525C15.1141 37.9306 13.0174 37.9033 12.3899 37.9306C12.3899 37.9306 8.76636 38.0741 5.5042 35.9546L5.48792 35.9429C5.1435 35.6094 4.81931 35.2573 4.51692 34.8883C3.47592 33.6191 2.83782 32.1182 2.67748 31.6899C2.6772 31.6881 2.6772 31.6863 2.67748 31.6844C2.41947 30.9402 1.8774 29.1531 1.95147 27.4221C2.08251 24.368 3.15687 22.4935 3.44093 22.0239C4.19323 20.7433 5.17169 19.5975 6.33276 18.6375C7.35734 17.8092 8.51866 17.1501 9.7691 16.6873C11.1209 16.144 12.5684 15.8527 14.034 15.8292V20.892C14.034 20.892 11.353 20.0417 9.2075 21.5473C7.70746 22.6612 6.91145 23.7479 6.67704 25.6887C6.66728 27.1171 7.03272 29.1383 9.03739 30.4862C9.27125 30.6345 9.50078 30.766 9.72596 30.881C10.0762 31.3362 10.5024 31.7329 10.9875 32.055C12.9458 33.2945 14.5866 33.3811 16.6849 32.5761C18.084 32.0378 19.1372 30.8248 19.6256 29.4807C19.9324 28.6413 19.9284 27.7965 19.9284 26.9228V2.06934H24.8118C25.0137 3.21684 25.572 4.85034 27.0485 6.46823C27.6407 7.07912 28.3078 7.6192 29.0352 8.07676C29.2501 8.29909 30.3489 9.39823 31.7594 10.073C32.4887 10.4218 33.2575 10.689 34.0506 10.8695V10.8695Z" fill="black"/>
<path d="M0.733887 30.1357V30.1396L0.855062 30.4681C0.841144 30.4298 0.796112 30.3136 0.733887 30.1357Z" fill="#69C9D0"/>
<path d="M9.76923 16.688C8.51879 17.1507 7.35747 17.8098 6.33289 18.6382C5.17144 19.6003 4.19323 20.7485 3.44187 22.0315C3.15781 22.4996 2.08345 24.3757 1.95241 27.4297C1.87834 29.1607 2.42041 30.9479 2.67842 31.6921C2.67814 31.6939 2.67814 31.6957 2.67842 31.6976C2.8412 32.1219 3.47687 33.6228 4.51786 34.8959C4.82025 35.2649 5.14445 35.6171 5.48886 35.9506C4.38535 35.2191 3.40119 34.3347 2.56854 33.3264C1.5365 32.0681 0.900021 30.5828 0.733983 30.1444C0.733787 30.1413 0.733787 30.1382 0.733983 30.135V30.1296C0.475158 29.3862 -0.0685346 27.5982 0.00715926 25.8649C0.138199 22.8108 1.21256 20.9363 1.49662 20.4667C2.24776 19.1835 3.226 18.0353 4.38764 17.0733C5.412 16.2447 6.57338 15.5856 7.82398 15.1231C8.60403 14.8129 9.41665 14.5841 10.2478 14.4405C11.5004 14.231 12.7797 14.2128 14.0382 14.3867V15.8299C12.5712 15.8529 11.1223 16.1441 9.76923 16.688Z" fill="#69C9D0"/>
<path d="M24.8159 2.06953H19.9325V26.9238C19.9325 27.7975 19.9325 28.64 19.6297 29.4817C19.1364 30.825 18.0873 32.038 16.689 32.5763C14.5899 33.3844 12.9491 33.2947 10.9916 32.0552C10.5057 31.7345 10.0783 31.3392 9.72681 30.8851C11.3945 31.7377 12.8872 31.7229 14.7364 31.0114C16.1339 30.4732 17.1847 29.2601 17.6763 27.916C17.9839 27.0767 17.9799 26.2319 17.9799 25.3589V0.5H24.7231C24.7231 0.5 24.6475 1.11783 24.8159 2.06953ZM34.0506 9.48657V10.8697C33.2589 10.6889 32.4915 10.4217 31.7635 10.0732C30.353 9.39842 29.2542 8.29928 29.0393 8.07696C29.2887 8.23385 29.5474 8.37659 29.8142 8.50444C31.5291 9.32509 33.218 9.57004 34.0506 9.48657Z" fill="#69C9D0"/>
</g>
<defs>
<clipPath id="clip0_2012_4810">
<rect width="36" height="40" fill="white"/>
</clipPath>
</defs>
</svg>
