<svg width="48" height="39" viewBox="0 0 48 39" fill="none" xmlns="http://www.w3.org/2000/svg">
<path d="M22.0323 6.16886C15.8751 3.60061 0 16.0976 0 26.6353C0 32.8043 7.801 38.9998 20.6938 38.9998C36.4886 38.9998 44.0915 28.2503 41.4679 22.9815C39.7951 19.6219 35.5516 19.3277 35.2839 18.4275C35.1107 17.845 37.2381 14.3501 34.9359 12.4703C31.0092 9.26412 24.3346 13.8736 23.5851 13.0528C23.1171 12.5404 25.3519 7.55348 22.0323 6.16886Z" fill="#E31C34"/>
<path d="M33.8028 25.4168C34.3073 30.5741 28.2567 35.3731 20.2884 36.1356C12.32 36.8981 5.45141 33.3354 4.94687 28.178C4.44234 23.0207 10.4929 18.2217 18.4613 17.4592C26.4296 16.6967 33.2982 20.2595 33.8028 25.4168Z" fill="white"/>
<path fill-rule="evenodd" clip-rule="evenodd" d="M25.7031 25.6825C26.6784 29.1295 24.1445 32.844 20.0434 33.9791C15.9423 35.1142 11.8271 33.2401 10.8517 29.7931C9.87631 26.3461 12.4102 22.6316 16.5113 21.4965C20.6124 20.3614 24.7277 22.2355 25.7031 25.6825ZM18.4083 27.9033C18.9506 29.0569 18.2817 30.5016 16.9144 31.1303C15.5471 31.7589 13.9992 31.3335 13.457 30.1799C12.9147 29.0264 13.5836 27.5817 14.9509 26.953C16.3181 26.3244 17.8661 26.7498 18.4083 27.9033ZM20.2016 27.3034C20.7343 27.0585 20.995 26.4955 20.7837 26.0461C20.5724 25.5966 19.9692 25.4308 19.4365 25.6758C18.9037 25.9207 18.6431 26.4837 18.8544 26.9331C19.0657 27.3826 19.6688 27.5484 20.2016 27.3034Z" fill="black"/>
<path d="M32.7572 3.71599C33.4875 3.53724 34.2528 3.44196 35.043 3.44196C40.2769 3.44196 44.5198 7.63826 44.5198 12.8147C44.5198 13.958 44.3136 15.0498 43.9375 16.0582C43.605 16.9499 44.0663 17.9395 44.9679 18.2684C45.8696 18.5973 46.8701 18.1411 47.2027 17.2494C47.7189 15.8652 48 14.3705 48 12.8147C48 5.73732 42.199 0 35.043 0C33.9688 0 32.9228 0.129658 31.9211 0.374839C30.9882 0.603184 30.4191 1.53624 30.65 2.45887C30.8809 3.3815 31.8243 3.94433 32.7572 3.71599Z" fill="#FD9940"/>
<path d="M34.2948 9.7237C34.5332 9.66759 34.7834 9.63748 35.043 9.63748C36.8172 9.63748 38.2555 11.06 38.2555 12.8147C38.2555 13.1977 38.1877 13.5612 38.0649 13.8967C37.7376 14.7904 38.2049 15.7772 39.1085 16.1008C40.0121 16.4245 41.0099 15.9624 41.3371 15.0687C41.5956 14.3629 41.7357 13.6031 41.7357 12.8147C41.7357 9.15902 38.7393 6.19552 35.043 6.19552C34.51 6.19552 33.9893 6.25749 33.4889 6.3753C32.554 6.5954 31.9765 7.52338 32.199 8.44802C32.4216 9.37265 33.3599 9.9438 34.2948 9.7237Z" fill="#FD9940"/>
</svg>
