<svg viewBox="0 0 19 23" fill="none" xmlns="http://www.w3.org/2000/svg">
  <path
    d="M17 9.5V6.3C17 4.61984 17 3.77976 16.673 3.13803C16.3854 2.57354 15.9265 2.1146 15.362 1.82698C14.7202 1.5 13.8802 1.5 12.2 1.5H5.8C4.11984 1.5 3.27976 1.5 2.63803 1.82698C2.07354 2.1146 1.6146 2.57354 1.32698 3.13803C1 3.77976 1 4.61984 1 6.3V16.7C1 18.3802 1 19.2202 1.32698 19.862C1.6146 20.4265 2.07354 20.8854 2.63803 21.173C3.27976 21.5 4.11984 21.5 5.8 21.5H9M13.9973 14.3306C13.1975 13.4216 11.8639 13.1771 10.8619 14.0094C9.85986 14.8418 9.71879 16.2335 10.5057 17.2179C11.2926 18.2024 13.9973 20.5 13.9973 20.5C13.9973 20.5 16.7019 18.2024 17.4888 17.2179C18.2757 16.2335 18.1519 14.8331 17.1326 14.0094C16.1134 13.1858 14.797 13.4216 13.9973 14.3306Z"
    stroke="currentColor"
    stroke-width="2"
    stroke-linecap="round"
    stroke-linejoin="round"
  />
</svg>
