<svg
  width="20"
  height="21"
  viewBox="0 0 20 21"
  fill="none"
  xmlns="http://www.w3.org/2000/svg"
>
  <path
    d="M16.6663 10.917V6.16699C16.6663 4.76686 16.6663 4.0668 16.3939 3.53202C16.1542 3.06161 15.7717 2.67916 15.3013 2.43948C14.7665 2.16699 14.0665 2.16699 12.6663 2.16699H7.33301C5.93288 2.16699 5.23281 2.16699 4.69803 2.43948C4.22763 2.67916 3.84517 3.06161 3.60549 3.53202C3.33301 4.0668 3.33301 4.76686 3.33301 6.16699V14.8337C3.33301 16.2338 3.33301 16.9339 3.60549 17.4686C3.84517 17.939 4.22763 18.3215 4.69803 18.5612C5.23281 18.8337 5.93284 18.8337 7.33289 18.8337H10.4163M11.6663 9.66699H6.66634M8.33301 13.0003H6.66634M13.333 6.33366H6.66634M12.4997 16.3337L14.9997 18.8337M14.9997 18.8337L17.4997 16.3337M14.9997 18.8337V13.8337"
    stroke="white"
    stroke-opacity="0.5"
    stroke-width="1.66667"
    stroke-linecap="round"
    stroke-linejoin="round"
  />
</svg>
