<svg viewBox="0 0 22 23" fill="none" xmlns="http://www.w3.org/2000/svg">
  <path
    d="M4 13.7864C2.14864 14.6031 1 15.7412 1 17C1 19.4853 5.47715 21.5 11 21.5C16.5228 21.5 21 19.4853 21 17C21 15.7412 19.8514 14.6031 18 13.7864M17 7.5C17 11.5637 12.5 13.5 11 16.5C9.5 13.5 5 11.5637 5 7.5C5 4.18629 7.68629 1.5 11 1.5C14.3137 1.5 17 4.18629 17 7.5ZM12 7.5C12 8.05228 11.5523 8.5 11 8.5C10.4477 8.5 10 8.05228 10 7.5C10 6.94772 10.4477 6.5 11 6.5C11.5523 6.5 12 6.94772 12 7.5Z"
    stroke="currentColor"
    stroke-width="2"
    stroke-linecap="round"
    stroke-linejoin="round"
  />
</svg>
