<svg viewBox="0 0 22 23" fill="none" xmlns="http://www.w3.org/2000/svg">
  <path
    d="M7 13.5C7 13.5 8.5 15.5 11 15.5C13.5 15.5 15 13.5 15 13.5M14 8.5H14.01M8 8.5H8.01M21 11.5C21 17.0228 16.5228 21.5 11 21.5C5.47715 21.5 1 17.0228 1 11.5C1 5.97715 5.47715 1.5 11 1.5C16.5228 1.5 21 5.97715 21 11.5ZM14.5 8.5C14.5 8.77614 14.2761 9 14 9C13.7239 9 13.5 8.77614 13.5 8.5C13.5 8.22386 13.7239 8 14 8C14.2761 8 14.5 8.22386 14.5 8.5ZM8.5 8.5C8.5 8.77614 8.27614 9 8 9C7.72386 9 7.5 8.77614 7.5 8.5C7.5 8.22386 7.72386 8 8 8C8.27614 8 8.5 8.22386 8.5 8.5Z"
    stroke="currentColor"
    stroke-width="2"
    stroke-linecap="round"
    stroke-linejoin="round"
  />
</svg>
