<?xml version="1.0" standalone="no"?>
<!DOCTYPE svg PUBLIC "-//W3C//DTD SVG 20010904//EN"
 "http://www.w3.org/TR/2001/REC-SVG-20010904/DTD/svg10.dtd">
<svg version="1.0" xmlns="http://www.w3.org/2000/svg"
 width="1504.000000pt" height="1504.000000pt" viewBox="0 0 1504.000000 1504.000000"
 preserveAspectRatio="xMidYMid meet">
<metadata>
Created by potrace 1.14, written by Peter Selinger 2001-2017
</metadata>
<g transform="translate(0.000000,1504.000000) scale(0.100000,-0.100000)"
fill="#000000" stroke="none">
<path d="M8117 11584 c-1 -1 -38 -5 -82 -8 -101 -8 -131 -13 -229 -37 -117
-30 -315 -110 -324 -131 -2 -4 -9 -8 -14 -8 -14 0 -162 -99 -166 -111 -2 -5
-8 -9 -14 -9 -16 0 -208 -198 -243 -250 -16 -25 -32 -47 -35 -50 -6 -5 -35
-54 -78 -130 -72 -130 -131 -334 -148 -510 -7 -72 -11 -1010 -4 -1011 24 -5
1344 -3 1352 2 6 4 11 200 14 540 3 534 4 579 14 579 3 0 7 10 7 22 2 25 26
93 51 148 9 19 16 38 17 42 0 4 24 43 53 87 138 206 345 343 587 387 53 10
3934 10 4005 1 59 -8 192 -42 225 -57 11 -5 40 -17 65 -28 104 -44 253 -167
291 -239 8 -16 16 -30 20 -33 14 -13 69 -147 62 -154 -3 -2 -1 -11 3 -18 4 -7
10 -22 12 -33 8 -34 12 -1407 5 -1419 -4 -6 -9 -20 -10 -31 -2 -11 -10 -42
-18 -70 -8 -27 -14 -54 -14 -59 1 -5 -3 -12 -8 -15 -5 -3 -20 -28 -33 -55 -22
-42 -129 -162 -171 -191 -104 -73 -241 -131 -347 -149 -135 -24 -174 -27 -317
-26 -11 1 -284 0 -607 -1 -323 0 -592 2 -597 6 -6 3 -11 3 -11 -2 0 -9 -202
-8 -225 1 -8 3 -15 2 -15 -2 0 -8 -203 -7 -225 2 -8 3 -15 2 -15 -2 0 -8 -203
-7 -225 2 -8 3 -15 2 -15 -2 0 -8 -203 -7 -225 2 -8 3 -15 2 -15 -2 0 -8 -203
-7 -225 2 -8 3 -15 2 -15 -2 0 -8 -203 -7 -225 2 -8 3 -15 2 -15 -2 0 -8 -203
-7 -225 2 -8 3 -15 2 -15 -2 0 -8 -203 -7 -225 2 -8 3 -15 2 -15 -2 0 -8 -203
-7 -225 2 -8 3 -15 2 -15 -2 0 -4 -237 -6 -528 -5 -290 1 -664 2 -832 2 -343
1 -428 1 -483 4 -21 2 -41 -1 -43 -5 -2 -4 -14 -5 -26 -3 -17 4 -191 7 -238 4
-12 0 -400 -1 -505 0 -11 0 -60 0 -110 0 -49 0 -96 0 -102 0 -27 2 -239 3
-273 2 -8 0 -62 0 -120 0 -58 1 -112 1 -120 0 -8 0 -62 0 -120 0 -58 1 -112 0
-120 0 -8 0 -62 0 -120 0 -58 1 -112 1 -120 0 -8 0 -46 0 -85 0 -38 0 -77 0
-85 0 -8 0 -78 0 -155 0 -77 0 -147 0 -155 0 -8 0 -62 0 -120 0 -58 1 -116 0
-130 -1 -14 -1 -29 -2 -35 -2 -5 0 -64 0 -130 1 -66 0 -127 0 -135 0 -8 -1
-55 -1 -105 0 -49 0 -97 0 -105 0 -8 -1 -69 -1 -135 0 -66 0 -127 0 -135 0 -8
-1 -55 -1 -105 0 -49 0 -97 0 -105 0 -8 -1 -69 -1 -135 0 -66 0 -127 0 -135 0
-8 -1 -55 -1 -105 0 -49 0 -97 0 -105 0 -8 -1 -69 -1 -135 0 -66 0 -127 0
-135 0 -8 -1 -55 -1 -105 0 -49 0 -97 0 -105 0 -8 -1 -105 -1 -215 0 -110 0
-207 0 -215 -1 -8 0 -55 0 -105 1 -49 0 -97 0 -105 0 -8 -1 -69 -1 -135 0 -66
0 -127 0 -135 0 -8 -1 -55 -1 -105 0 -49 0 -97 0 -105 0 -8 0 -73 0 -145 0
-129 1 -253 -4 -310 -14 -82 -13 -104 -17 -147 -30 -27 -8 -48 -11 -48 -7 0 4
-4 2 -8 -3 -4 -6 -27 -17 -52 -24 -91 -27 -256 -116 -361 -196 -133 -101 -277
-265 -360 -410 -36 -63 -95 -193 -105 -230 -1 -5 -9 -30 -17 -55 -13 -41 -20
-64 -33 -125 -3 -11 -8 -40 -12 -65 -10 -61 -9 -2723 1 -2780 4 -25 9 -58 12
-75 5 -34 47 -175 66 -220 6 -16 13 -36 15 -43 5 -27 100 -192 150 -262 75
-104 199 -231 284 -290 19 -14 37 -28 40 -31 10 -11 129 -80 134 -77 2 2 12
-4 22 -13 39 -33 224 -99 347 -123 39 -8 113 -18 162 -22 109 -8 5576 -9 5656
0 117 12 258 43 325 71 18 7 35 11 38 7 3 -3 6 0 6 6 0 7 7 12 16 12 29 0 272
131 294 159 3 3 23 19 45 36 60 44 176 161 232 235 142 184 232 392 268 616
13 87 16 151 17 409 l1 270 -678 0 c-402 0 -679 -4 -683 -9 -3 -5 -6 -185 -8
-400 -1 -215 -6 -407 -11 -426 -6 -19 -11 -39 -11 -45 -8 -45 -51 -156 -86
-218 -63 -115 -146 -209 -252 -288 -61 -45 -233 -131 -246 -123 -4 3 -8 1 -8
-3 0 -5 -8 -10 -17 -10 -10 -1 -52 -9 -93 -17 -65 -13 -335 -15 -1990 -15
-2026 0 -1970 -1 -2105 44 -69 24 -196 85 -215 105 -3 3 -23 18 -45 35 -89 66
-171 160 -230 265 -34 61 -79 174 -91 230 -3 14 -8 41 -12 60 -9 47 -9 2865 0
2910 4 19 9 42 11 50 22 103 99 266 162 342 68 83 157 168 174 168 5 0 11 4
13 8 5 12 98 66 163 95 56 25 125 46 170 53 11 2 31 6 45 9 25 7 4631 14 4660
7 14 -3 16 -102 15 -935 0 -821 -2 -932 -15 -933 -8 -1 -19 -3 -25 -4 -5 -1
-14 -1 -20 0 -27 5 -183 2 -193 -4 -7 -4 -12 -3 -12 3 0 7 -8 7 -24 1 -13 -5
-26 -6 -29 -3 -8 8 -243 7 -256 -1 -6 -4 -11 -3 -11 3 0 7 -8 7 -25 1 -13 -5
-26 -6 -29 -2 -5 8 -85 6 -93 -2 -3 -3 -15 -1 -27 4 -13 4 -29 4 -39 -1 -9 -6
-17 -6 -17 -2 0 4 -34 8 -75 8 -41 0 -75 -4 -75 -8 0 -5 -4 -5 -10 -2 -15 9
-80 12 -80 3 0 -4 -6 -5 -14 -2 -23 9 -109 11 -131 3 -11 -3 -29 -3 -40 1 -11
4 -28 3 -37 -2 -10 -5 -18 -5 -18 -1 0 9 -210 9 -234 0 -9 -4 -16 -2 -16 3 0
6 -9 6 -25 0 -13 -5 -27 -6 -29 -1 -3 4 -26 5 -51 1 -25 -4 -48 -3 -51 2 -3 4
-14 4 -24 -2 -13 -7 -21 -7 -25 0 -4 7 -12 7 -25 0 -12 -6 -21 -7 -25 0 -4 6
-15 6 -31 0 -14 -6 -23 -7 -21 -2 3 4 -10 7 -29 7 -19 0 -34 -3 -34 -7 0 -4
-10 -4 -22 1 -13 4 -35 5 -50 0 -16 -4 -30 -3 -33 2 -4 5 -14 5 -25 -1 -13 -7
-21 -7 -25 0 -4 7 -12 7 -25 0 -12 -6 -21 -7 -25 0 -4 6 -15 6 -31 0 -14 -6
-23 -7 -21 -2 3 4 -10 7 -29 7 -19 0 -34 -3 -34 -7 0 -4 -10 -4 -22 1 -13 4
-35 5 -50 0 -16 -4 -30 -3 -33 2 -4 5 -14 5 -25 -1 -13 -7 -21 -7 -25 0 -4 7
-12 7 -25 0 -12 -6 -21 -7 -25 0 -4 6 -15 6 -31 0 -14 -6 -23 -7 -21 -2 3 4
-10 7 -29 7 -19 0 -34 -3 -34 -7 0 -4 -10 -4 -22 1 -13 4 -35 5 -50 0 -16 -4
-30 -3 -33 2 -4 5 -14 5 -25 -1 -13 -7 -21 -7 -25 0 -4 7 -12 7 -25 0 -12 -6
-21 -7 -25 0 -4 6 -15 6 -31 0 -14 -6 -23 -7 -21 -2 3 4 -23 7 -56 6 -56 -1
-62 -3 -62 -22 0 -12 -4 -24 -7 -28 -4 -4 -3 -14 2 -23 5 -10 5 -23 0 -31 -5
-8 -5 -21 1 -31 6 -11 5 -20 -1 -24 -6 -3 -6 -15 0 -30 6 -15 6 -27 0 -30 -6
-3 -6 -15 0 -30 7 -18 6 -25 -2 -25 -9 0 -9 -3 -1 -11 6 -6 9 -18 6 -25 -4
-11 7 -14 43 -15 27 -1 53 -1 57 0 12 2 40 2 197 2 80 0 152 0 160 0 8 0 80 0
160 0 80 0 152 0 160 0 8 0 80 0 160 0 80 0 152 0 160 0 8 0 75 0 147 -1 73
-1 137 1 143 5 5 3 10 1 10 -5 0 -6 4 -9 8 -6 7 4 81 7 122 5 8 0 40 0 70 0
50 1 106 1 340 1 41 0 103 -1 138 -3 34 -1 62 2 62 6 0 5 5 5 10 2 14 -9 186
-9 199 0 6 3 11 1 11 -5 0 -6 4 -9 8 -6 7 4 81 7 122 5 8 0 40 0 70 0 30 1
100 1 155 1 55 0 107 1 115 1 8 0 335 0 725 0 391 0 717 0 725 0 8 0 85 0 170
0 85 0 162 0 170 0 8 0 80 0 160 0 80 0 152 0 160 0 8 0 75 0 147 -1 73 -1
137 1 143 5 5 3 10 1 10 -5 0 -6 4 -9 8 -6 7 4 81 7 122 5 8 0 40 0 70 0 50 1
106 1 340 1 41 0 103 -1 138 -3 34 -1 62 2 62 6 0 5 5 5 10 2 14 -9 186 -9
199 0 6 3 11 1 11 -5 0 -6 4 -9 8 -6 7 4 81 7 122 5 8 0 40 0 70 0 67 1 349 1
480 0 30 0 60 0 65 1 6 1 29 1 53 0 32 -1 42 2 42 14 1 9 1 59 1 111 0 200 0
194 -18 194 -10 0 -52 1 -94 2 -42 1 -82 -1 -88 -5 -6 -4 -11 -3 -11 3 0 7 -8
7 -25 1 -13 -5 -26 -6 -29 -2 -5 8 -85 6 -93 -2 -3 -3 -15 -1 -27 4 -13 4 -29
4 -39 -1 -9 -6 -17 -6 -17 -2 0 4 -34 8 -75 8 -41 0 -75 -4 -75 -8 0 -5 -4 -5
-10 -2 -15 9 -80 12 -80 3 0 -4 -6 -5 -14 -2 -23 9 -109 11 -131 3 -11 -3 -29
-3 -40 1 -11 4 -28 3 -37 -2 -10 -5 -18 -5 -18 -1 0 9 -210 9 -234 0 -9 -4
-16 -2 -16 3 0 6 -9 6 -25 0 -13 -5 -26 -6 -29 -2 -5 8 -85 6 -93 -2 -3 -3
-15 -1 -27 4 -13 4 -29 4 -39 -1 -9 -6 -17 -6 -17 -2 0 4 -34 8 -75 8 -41 0
-75 -4 -75 -8 0 -5 -4 -5 -10 -2 -15 9 -80 12 -80 3 0 -4 -6 -5 -14 -2 -23 9
-109 11 -131 3 -11 -3 -29 -3 -40 1 -11 4 -28 3 -37 -2 -11 -5 -18 -5 -18 0 0
5 -18 6 -40 2 -22 -4 -43 -3 -46 1 -3 5 -14 5 -24 -1 -13 -7 -21 -7 -25 0 -4
7 -12 7 -25 0 -12 -6 -21 -7 -25 0 -4 6 -15 6 -31 0 -14 -6 -23 -7 -21 -2 3 4
-10 7 -29 7 -19 0 -34 -3 -34 -7 0 -4 -10 -4 -22 1 -13 4 -35 5 -50 0 -16 -4
-30 -3 -33 2 -4 5 -14 5 -25 -1 -13 -7 -21 -7 -25 0 -4 7 -12 7 -25 0 -12 -6
-21 -7 -25 0 -4 6 -15 6 -31 0 -14 -6 -23 -7 -21 -2 3 4 -10 7 -29 7 -19 0
-34 -3 -34 -7 0 -4 -10 -4 -22 1 -13 4 -35 5 -50 0 -15 -4 -30 -4 -32 -1 -4 7
-55 8 -81 2 -5 -1 -13 -1 -17 0 -5 1 -14 3 -20 4 -10 1 -13 196 -14 934 -1
854 0 932 15 933 9 0 1281 2 2826 3 1546 2 2819 5 2830 8 11 3 49 9 85 14 72
9 83 11 90 14 3 1 17 3 31 5 42 6 201 50 259 72 8 4 18 5 23 5 4 -1 7 3 7 8 0
5 3 9 8 8 4 -1 42 15 85 36 154 75 298 204 383 344 46 76 97 199 89 213 -4 5
-2 9 3 9 5 0 9 6 10 13 1 18 12 70 18 86 12 36 23 579 15 776 -1 17 -1 89 0
160 1 72 1 144 0 160 0 17 -1 138 0 270 1 279 -5 388 -26 476 -9 35 -18 73
-20 83 -6 24 -47 127 -56 141 -4 6 -19 32 -34 59 -46 83 -166 208 -258 269
-78 52 -247 133 -297 143 -3 0 -12 3 -20 7 -26 10 -86 27 -111 32 -13 3 -46 9
-74 15 -27 5 -68 12 -90 15 -22 4 -53 8 -70 11 -16 3 -66 7 -110 10 -67 4
-5633 12 -5638 8z"/>
</g>
</svg>
