<svg
  width="47"
  height="26"
  viewBox="0 0 47 26"
  fill="none"
  xmlns="http://www.w3.org/2000/svg"
>
  <path
    fill-rule="evenodd"
    clip-rule="evenodd"
    d="M25.4378 0.314453H42.4087C44.7345 0.314453 46.6242 1.20415 46.6242 3.56626V7.88791C46.6242 10.2137 44.7345 11.1397 42.4087 11.1397H25.4379L25.4379 18.0001H21.186L21.186 11.1335L6.97708 11.1335C5.45079 11.1335 4.21522 12.369 4.21522 13.8953L4.21522 22.0881C4.21522 23.6144 5.45079 24.85 6.97708 24.85H18.4243C19.9505 24.85 21.1861 23.6144 21.1861 22.0881V20.6408H21.186V20.0001H25.4379V21.434C25.4379 23.7961 23.5119 25.6858 21.1861 25.6858L4.21522 25.6858C1.88945 25.6858 -0.000244141 23.7961 -0.000244141 21.434V14.0084C-0.000244141 11.6826 1.88945 9.75657 4.21522 9.75657L21.186 9.75656V9.75445H25.4379V9.76283H39.6468C41.1731 9.76283 42.4087 9.03198 42.4087 7.50569V3.91214C42.4087 2.38585 41.1731 1.655 39.6468 1.655H28.1997C26.6734 1.655 25.4378 2.89057 25.4378 4.41686V7.34445H21.186V4.56626C21.186 2.20415 23.112 0.314453 25.4378 0.314453Z"
    fill="white"
  />
  <path
    fill-rule="evenodd"
    clip-rule="evenodd"
    d="M25.4378 0.314453H42.4087C44.7345 0.314453 46.6242 1.20415 46.6242 3.56626V7.88791C46.6242 10.2137 44.7345 11.1397 42.4087 11.1397H25.4379L25.4379 18.0001H21.186L21.186 11.1335L6.97708 11.1335C5.45079 11.1335 4.21522 12.369 4.21522 13.8953L4.21522 22.0881C4.21522 23.6144 5.45079 24.85 6.97708 24.85H18.4243C19.9505 24.85 21.1861 23.6144 21.1861 22.0881V20.6408H21.186V20.0001H25.4379V21.434C25.4379 23.7961 23.5119 25.6858 21.1861 25.6858L4.21522 25.6858C1.88945 25.6858 -0.000244141 23.7961 -0.000244141 21.434V14.0084C-0.000244141 11.6826 1.88945 9.75657 4.21522 9.75657L21.186 9.75656V9.75445H25.4379V9.76283H39.6468C41.1731 9.76283 42.4087 9.03198 42.4087 7.50569V3.91214C42.4087 2.38585 41.1731 1.655 39.6468 1.655H28.1997C26.6734 1.655 25.4378 2.89057 25.4378 4.41686V7.34445H21.186V4.56626C21.186 2.20415 23.112 0.314453 25.4378 0.314453Z"
    fill="url(#paint0_linear_98_24519)"
  />
  <path
    fill-rule="evenodd"
    clip-rule="evenodd"
    d="M25.4378 0.314453H42.4087C44.7345 0.314453 46.6242 1.20415 46.6242 3.56626V7.88791C46.6242 10.2137 44.7345 11.1397 42.4087 11.1397H25.4379L25.4379 18.0001H21.186L21.186 11.1335L6.97708 11.1335C5.45079 11.1335 4.21522 12.369 4.21522 13.8953L4.21522 22.0881C4.21522 23.6144 5.45079 24.85 6.97708 24.85H18.4243C19.9505 24.85 21.1861 23.6144 21.1861 22.0881V20.6408H21.186V20.0001H25.4379V21.434C25.4379 23.7961 23.5119 25.6858 21.1861 25.6858L4.21522 25.6858C1.88945 25.6858 -0.000244141 23.7961 -0.000244141 21.434V14.0084C-0.000244141 11.6826 1.88945 9.75657 4.21522 9.75657L21.186 9.75656V9.75445H25.4379V9.76283H39.6468C41.1731 9.76283 42.4087 9.03198 42.4087 7.50569V3.91214C42.4087 2.38585 41.1731 1.655 39.6468 1.655H28.1997C26.6734 1.655 25.4378 2.89057 25.4378 4.41686V7.34445H21.186V4.56626C21.186 2.20415 23.112 0.314453 25.4378 0.314453Z"
    fill="#424C5A"
  />
  <path d="M12 17H34V18H12V17Z" fill="#424C5A" />
  <defs>
    <linearGradient
      id="paint0_linear_98_24519"
      x1="8.64286"
      y1="36.5878"
      x2="8.64285"
      y2="-6.81851"
      gradientUnits="userSpaceOnUse"
    >
      <stop stop-color="#505D6D" />
      <stop offset="1" stop-color="#3A4350" />
    </linearGradient>
  </defs>
</svg>
